<svg width="84" height="20" viewBox="0 0 84 20" fill="none" xmlns="http://www.w3.org/2000/svg">
<path d="M1.26923 0H9.73077L11 19H0L1.26923 0Z" fill="url(#paint0_angular_201_145)"/>
<path d="M1.26923 0H9.73077L11 19H0L1.26923 0Z" fill="url(#paint1_angular_201_145)" fill-opacity="0.5"/>
<path d="M18.552 16C18.4347 16 18.36 15.9467 18.328 15.84L15.416 5.008L15.4 4.944C15.4 4.848 15.4587 4.8 15.576 4.8H17.144C17.2613 4.8 17.336 4.85333 17.368 4.96L19.192 12.256C19.2027 12.288 19.2187 12.304 19.24 12.304C19.2613 12.304 19.2773 12.288 19.288 12.256L21.032 4.96C21.064 4.85333 21.1333 4.8 21.24 4.8H22.776C22.8933 4.8 22.968 4.85333 23 4.96L24.856 12.272C24.8667 12.304 24.8827 12.32 24.904 12.32C24.9253 12.32 24.9413 12.304 24.952 12.272L26.744 4.96C26.776 4.85333 26.8507 4.8 26.968 4.8H28.456C28.6053 4.8 28.664 4.86933 28.632 5.008L25.864 15.84C25.832 15.9467 25.7573 16 25.64 16H24.152C24.0347 16 23.96 15.9467 23.928 15.84L22.056 8.208C22.0453 8.176 22.0293 8.16 22.008 8.16C21.9867 8.14933 21.9707 8.16533 21.96 8.208L20.168 15.84C20.136 15.9467 20.0667 16 19.96 16H18.552ZM32.2682 7.696C32.9403 7.696 33.5323 7.81333 34.0443 8.048C34.5563 8.28267 34.9509 8.608 35.2283 9.024C35.5056 9.42933 35.6443 9.89333 35.6443 10.416V15.808C35.6443 15.8613 35.6229 15.9093 35.5803 15.952C35.5483 15.984 35.5056 16 35.4523 16H33.9803C33.9269 16 33.8789 15.984 33.8363 15.952C33.8043 15.9093 33.7883 15.8613 33.7883 15.808V15.296C33.7883 15.264 33.7776 15.248 33.7563 15.248C33.7349 15.2373 33.7136 15.2427 33.6923 15.264C33.1696 15.84 32.4123 16.128 31.4203 16.128C30.6203 16.128 29.9589 15.9253 29.4363 15.52C28.9243 15.1147 28.6683 14.512 28.6683 13.712C28.6683 12.88 28.9563 12.2347 29.5323 11.776C30.1189 11.3067 30.9403 11.072 31.9963 11.072H33.7083C33.7616 11.072 33.7883 11.0453 33.7883 10.992V10.608C33.7883 10.192 33.6656 9.872 33.4203 9.648C33.1749 9.41333 32.8069 9.296 32.3163 9.296C31.9109 9.296 31.5803 9.37067 31.3243 9.52C31.0789 9.65867 30.9243 9.856 30.8603 10.112C30.8283 10.24 30.7536 10.2933 30.6363 10.272L29.0843 10.08C29.0309 10.0693 28.9829 10.0533 28.9403 10.032C28.9083 10 28.8976 9.96267 28.9083 9.92C28.9936 9.26933 29.3403 8.736 29.9483 8.32C30.5669 7.904 31.3403 7.696 32.2682 7.696ZM31.8843 14.656C32.4069 14.656 32.8549 14.5173 33.2283 14.24C33.6016 13.9627 33.7883 13.6107 33.7883 13.184V12.432C33.7883 12.3787 33.7616 12.352 33.7083 12.352H32.3643C31.7989 12.352 31.3509 12.4587 31.0203 12.672C30.7003 12.8853 30.5403 13.1893 30.5403 13.584C30.5403 13.9253 30.6629 14.192 30.9083 14.384C31.1643 14.5653 31.4896 14.656 31.8843 14.656ZM37.1758 19.184C37.1438 19.184 37.1171 19.1627 37.0958 19.12C37.0744 19.088 37.0638 19.0453 37.0638 18.992V17.84C37.0638 17.7867 37.0798 17.7387 37.1118 17.696C37.1544 17.664 37.2024 17.648 37.2558 17.648H37.2718C37.7091 17.6373 38.0504 17.5893 38.2958 17.504C38.5411 17.4293 38.7438 17.28 38.9038 17.056C39.0638 16.832 39.2078 16.496 39.3358 16.048C39.3464 16.0267 39.3464 15.9947 39.3358 15.952L36.6958 8.032C36.6851 8.01067 36.6798 7.984 36.6798 7.952C36.6798 7.856 36.7331 7.808 36.8398 7.808H38.4078C38.5251 7.808 38.5998 7.86133 38.6318 7.968L40.2318 13.6C40.2424 13.632 40.2584 13.648 40.2798 13.648C40.3011 13.648 40.3171 13.632 40.3278 13.6L41.9278 7.968C41.9598 7.86133 42.0344 7.808 42.1518 7.808H43.6718C43.7358 7.808 43.7784 7.82933 43.7998 7.872C43.8318 7.904 43.8371 7.95733 43.8158 8.032L40.9998 16.448C40.7331 17.2053 40.4718 17.7707 40.2158 18.144C39.9598 18.5173 39.6078 18.784 39.1598 18.944C38.7224 19.104 38.0984 19.184 37.2878 19.184H37.1758ZM47.657 16.096C46.985 16.096 46.393 16 45.881 15.808C45.3797 15.6053 44.9903 15.3333 44.713 14.992C44.4357 14.64 44.297 14.2507 44.297 13.824V13.68C44.297 13.6267 44.313 13.584 44.345 13.552C44.3877 13.5093 44.4357 13.488 44.489 13.488H45.897C45.9503 13.488 45.993 13.5093 46.025 13.552C46.0677 13.584 46.089 13.6267 46.089 13.68V13.712C46.089 13.9787 46.233 14.2133 46.521 14.416C46.8197 14.608 47.193 14.704 47.641 14.704C48.0677 14.704 48.4143 14.6187 48.681 14.448C48.9477 14.2667 49.081 14.0427 49.081 13.776C49.081 13.5307 48.969 13.3493 48.745 13.232C48.5317 13.104 48.1797 12.9707 47.689 12.832L47.081 12.64C46.537 12.48 46.0783 12.3093 45.705 12.128C45.3317 11.9467 45.017 11.7013 44.761 11.392C44.505 11.072 44.377 10.6667 44.377 10.176C44.377 9.42933 44.6703 8.83733 45.257 8.4C45.8437 7.952 46.617 7.728 47.577 7.728C48.2277 7.728 48.7983 7.83467 49.289 8.048C49.7797 8.25067 50.1583 8.53867 50.425 8.912C50.6917 9.27467 50.825 9.69067 50.825 10.16C50.825 10.2133 50.8037 10.2613 50.761 10.304C50.729 10.336 50.6863 10.352 50.633 10.352H49.273C49.2197 10.352 49.1717 10.336 49.129 10.304C49.097 10.2613 49.081 10.2133 49.081 10.16C49.081 9.88267 48.9423 9.65333 48.665 9.472C48.3983 9.28 48.0303 9.184 47.561 9.184C47.145 9.184 46.8037 9.264 46.537 9.424C46.281 9.57333 46.153 9.78667 46.153 10.064C46.153 10.32 46.2757 10.5173 46.521 10.656C46.777 10.784 47.1983 10.928 47.785 11.088L48.137 11.184C48.7023 11.3547 49.177 11.5307 49.561 11.712C49.945 11.8827 50.2703 12.128 50.537 12.448C50.8037 12.7573 50.937 13.1627 50.937 13.664C50.937 14.4213 50.6383 15.0187 50.041 15.456C49.4437 15.8827 48.649 16.096 47.657 16.096ZM56.828 9.136C56.828 9.18933 56.8067 9.23733 56.764 9.28C56.732 9.312 56.6893 9.328 56.636 9.328H55.004C54.9507 9.328 54.924 9.35467 54.924 9.408V13.264C54.924 13.6693 55.0093 13.9627 55.18 14.144C55.3613 14.3253 55.644 14.416 56.028 14.416H56.508C56.5613 14.416 56.604 14.4373 56.636 14.48C56.6787 14.512 56.7 14.5547 56.7 14.608V15.808C56.7 15.9253 56.636 15.9947 56.508 16.016L55.676 16.032C54.8333 16.032 54.204 15.888 53.788 15.6C53.372 15.312 53.1587 14.768 53.148 13.968V9.408C53.148 9.35467 53.1213 9.328 53.068 9.328H52.156C52.1027 9.328 52.0547 9.312 52.012 9.28C51.98 9.23733 51.964 9.18933 51.964 9.136V8.016C51.964 7.96267 51.98 7.92 52.012 7.888C52.0547 7.84533 52.1027 7.824 52.156 7.824H53.068C53.1213 7.824 53.148 7.79733 53.148 7.744V5.872C53.148 5.81867 53.164 5.776 53.196 5.744C53.2387 5.70133 53.2867 5.68 53.34 5.68H54.732C54.7853 5.68 54.828 5.70133 54.86 5.744C54.9027 5.776 54.924 5.81867 54.924 5.872V7.744C54.924 7.79733 54.9507 7.824 55.004 7.824H56.636C56.6893 7.824 56.732 7.84533 56.764 7.888C56.8067 7.92 56.828 7.96267 56.828 8.016V9.136ZM61.7921 16.128C60.9495 16.128 60.2241 15.9147 59.6161 15.488C59.0188 15.0613 58.5975 14.4693 58.3521 13.712C58.1708 13.136 58.0801 12.528 58.0801 11.888C58.0801 11.2053 58.1655 10.5973 58.3361 10.064C58.5815 9.31733 59.0081 8.736 59.6161 8.32C60.2241 7.904 60.9548 7.696 61.8081 7.696C62.6188 7.696 63.3175 7.904 63.9041 8.32C64.5015 8.736 64.9228 9.312 65.1681 10.048C65.3601 10.56 65.4561 11.168 65.4561 11.872C65.4561 12.544 65.3655 13.152 65.1841 13.696C64.9388 14.4533 64.5175 15.0507 63.9201 15.488C63.3228 15.9147 62.6135 16.128 61.7921 16.128ZM61.7921 14.528C62.1868 14.528 62.5228 14.416 62.8001 14.192C63.0881 13.968 63.2961 13.6533 63.4241 13.248C63.5308 12.896 63.5841 12.448 63.5841 11.904C63.5841 11.328 63.5308 10.88 63.4241 10.56C63.3068 10.1547 63.1041 9.84533 62.8161 9.632C62.5281 9.408 62.1761 9.296 61.7601 9.296C61.3655 9.296 61.0241 9.408 60.7361 9.632C60.4481 9.84533 60.2401 10.1547 60.1121 10.56C60.0055 10.9333 59.9521 11.3813 59.9521 11.904C59.9521 12.4267 60.0055 12.8747 60.1121 13.248C60.2295 13.6533 60.4321 13.968 60.7201 14.192C61.0188 14.416 61.3761 14.528 61.7921 14.528ZM71.1308 7.696C71.9948 7.696 72.6828 7.952 73.1948 8.464C73.7174 8.976 73.9788 9.67467 73.9788 10.56V15.808C73.9788 15.8613 73.9574 15.9093 73.9148 15.952C73.8828 15.984 73.8401 16 73.7868 16H72.3148C72.2614 16 72.2134 15.984 72.1708 15.952C72.1388 15.9093 72.1228 15.8613 72.1228 15.808V10.944C72.1228 10.4533 71.9841 10.0587 71.7068 9.76C71.4294 9.45067 71.0614 9.296 70.6028 9.296C70.1441 9.296 69.7708 9.44533 69.4828 9.744C69.2054 10.0427 69.0668 10.4373 69.0668 10.928V15.808C69.0668 15.8613 69.0454 15.9093 69.0028 15.952C68.9708 15.984 68.9281 16 68.8748 16H67.4028C67.3494 16 67.3014 15.984 67.2588 15.952C67.2268 15.9093 67.2108 15.8613 67.2108 15.808V8.016C67.2108 7.96267 67.2268 7.92 67.2588 7.888C67.3014 7.84533 67.3494 7.824 67.4028 7.824H68.8748C68.9281 7.824 68.9708 7.84533 69.0028 7.888C69.0454 7.92 69.0668 7.96267 69.0668 8.016V8.528C69.0668 8.56 69.0774 8.58133 69.0988 8.592C69.1201 8.60267 69.1361 8.592 69.1468 8.56C69.5841 7.984 70.2454 7.696 71.1308 7.696ZM82.7474 10.992C82.79 11.2587 82.8114 11.5573 82.8114 11.888L82.7954 12.384C82.7954 12.512 82.7314 12.576 82.6034 12.576H77.5954C77.542 12.576 77.5154 12.6027 77.5154 12.656C77.5474 13.008 77.5954 13.248 77.6594 13.376C77.9154 14.144 78.5394 14.5333 79.5314 14.544C80.2567 14.544 80.8327 14.2453 81.2594 13.648C81.302 13.584 81.3554 13.552 81.4194 13.552C81.462 13.552 81.4994 13.568 81.5314 13.6L82.5234 14.416C82.6194 14.4907 82.6354 14.576 82.5714 14.672C82.2407 15.1413 81.798 15.504 81.2434 15.76C80.6994 16.016 80.0914 16.144 79.4194 16.144C78.5874 16.144 77.878 15.9573 77.2914 15.584C76.7154 15.2107 76.294 14.688 76.0274 14.016C75.782 13.44 75.6594 12.64 75.6594 11.616C75.6594 10.9973 75.7234 10.496 75.8514 10.112C76.0647 9.36533 76.4647 8.77867 77.0514 8.352C77.6487 7.91467 78.3634 7.696 79.1954 7.696C81.2967 7.696 82.4807 8.79467 82.7474 10.992ZM79.1954 9.296C78.8007 9.296 78.47 9.39733 78.2034 9.6C77.9474 9.792 77.766 10.064 77.6594 10.416C77.5954 10.5973 77.5527 10.832 77.5314 11.12C77.51 11.1733 77.5314 11.2 77.5954 11.2H80.8434C80.8967 11.2 80.9234 11.1733 80.9234 11.12C80.902 10.8533 80.87 10.6507 80.8274 10.512C80.7314 10.128 80.5394 9.82933 80.2514 9.616C79.974 9.40267 79.622 9.296 79.1954 9.296Z" fill="#212121"/>
<defs>
<radialGradient id="paint0_angular_201_145" cx="0" cy="0" r="1" gradientUnits="userSpaceOnUse" gradientTransform="translate(0 19) rotate(-62.9044) scale(24.1506 13.9819)">
<stop stop-color="#00A9ED"/>
<stop offset="1" stop-color="#0066A4"/>
</radialGradient>
<radialGradient id="paint1_angular_201_145" cx="0" cy="0" r="1" gradientUnits="userSpaceOnUse" gradientTransform="translate(13.5 15.5) rotate(-128.157) scale(26.7067 15.4618)">
<stop stop-color="#00A9ED"/>
<stop offset="1" stop-color="#00BBFF" stop-opacity="0"/>
</radialGradient>
</defs>
</svg>
